<svg xmlns="http://www.w3.org/2000/svg" xmlns:xlink="http://www.w3.org/1999/xlink" version="1.1" width="25" height="52" enable-background="new 6 0 25 52" xml:space="preserve"><rect id="backgroundrect" width="100%" height="100%" x="0" y="0" fill="none" stroke="none"/>




<g class="currentLayer" style=""><title>Layer 1</title><path fill="#CCCCCC" d="M25.074074268341064,49.973 C25.074074268341064,51.093 24.167074268341068,52 23.047074268341063,52 H2.101074268341063 C0.9810742683410645,52 0.07407426834106445,51.093 0.07407426834106445,49.973 V29.027 C0.07407426834106445,27.908 0.9810742683410645,27 2.101074268341063,27 h20.946 C24.167074268341068,27 25.074074268341064,27.908 25.074074268341064,29.027 V49.973 z" id="svg_1" class=""/><g id="svg_2" class="">
	<g id="svg_3">
		<path fill="#FFFFFF" d="M10.058074268341066,37.025 c0,0 -2.7520000000000002,0.3040000000000003 -4.588,0.508 c-0.1660000000000003,0.02100000000000004 -0.31200000000000044,0.131 -0.3660000000000003,0.2990000000000003 s0,0.3430000000000006 0.12200000000000011,0.454 c1.364,1.244 3.414,3.108 3.414,3.108 c-0.0010000000000000018,0 -0.562,2.7110000000000003 -0.935,4.521 c-0.032000000000000056,0.16300000000000028 0.02800000000000003,0.3370000000000006 0.17,0.44000000000000045 c0.14200000000000004,0.10400000000000002 0.3240000000000005,0.10500000000000002 0.468,0.024000000000000028 c1.606,-0.913 4.013,-2.285 4.013,-2.285 s2.4050000000000002,1.372 4.009,2.286 c0.1470000000000002,0.08000000000000011 0.3310000000000005,0.07800000000000011 0.4730000000000003,-0.025000000000000046 c0.14300000000000004,-0.10400000000000002 0.202,-0.277 0.16900000000000034,-0.43900000000000045 C16.634074268341063,44.105 16.074074268341064,41.395 16.074074268341064,41.395 s2.048,-1.864 3.412,-3.106 c0.12300000000000011,-0.11300000000000011 0.1780000000000002,-0.2880000000000003 0.12300000000000011,-0.456 c-0.054000000000000103,-0.16700000000000034 -0.2,-0.277 -0.3650000000000003,-0.2970000000000003 c-1.838,-0.20600000000000004 -4.59,-0.51 -4.59,-0.51 s-1.142,-2.524 -1.901,-4.208 c-0.07100000000000002,-0.15100000000000022 -0.22200000000000028,-0.256 -0.3970000000000006,-0.256 s-0.3270000000000005,0.10500000000000002 -0.3950000000000006,0.256 C11.198074268341063,34.501 10.058074268341066,37.025 10.058074268341066,37.025 z" id="svg_4"/>
	</g>
</g><path fill="#ff7800" d="M25.074074268341064,22.973 C25.074074268341064,24.093 24.167074268341068,25 23.047074268341063,25 H2.101074268341063 C0.9810742683410645,25 0.07407426834106445,24.093 0.07407426834106445,22.973 V2.027 C0.07407426834106445,0.908 0.9810742683410645,0 2.101074268341063,0 h20.946 C24.167074268341068,0 25.074074268341064,0.908 25.074074268341064,2.027 V22.973 z" id="svg_5" class="" fill-opacity="1"/><g id="svg_6" class="">
	<g id="svg_7">
		<path fill="#FFFFFF" d="M10.058074268341066,10.025 c0,0 -2.7520000000000002,0.3040000000000003 -4.588,0.509 c-0.1660000000000003,0.020000000000000028 -0.31200000000000044,0.131 -0.3660000000000003,0.2980000000000003 c-0.055000000000000056,0.16800000000000034 0,0.3430000000000006 0.12200000000000011,0.454 c1.364,1.244 3.414,3.108 3.414,3.108 c-0.0010000000000000018,0 -0.562,2.7110000000000003 -0.935,4.521 c-0.032000000000000056,0.16300000000000028 0.02800000000000003,0.3370000000000006 0.17,0.44000000000000045 c0.14200000000000004,0.10400000000000002 0.3240000000000005,0.10500000000000002 0.468,0.024000000000000028 c1.606,-0.913 4.013,-2.285 4.013,-2.285 s2.4050000000000002,1.373 4.009,2.287 c0.1470000000000002,0.07900000000000011 0.3310000000000005,0.07800000000000011 0.4730000000000003,-0.026000000000000054 c0.14300000000000004,-0.10400000000000002 0.202,-0.277 0.16900000000000034,-0.43900000000000045 C16.634074268341063,17.105 16.074074268341064,14.395 16.074074268341064,14.395 s2.048,-1.864 3.412,-3.106 c0.12300000000000011,-0.11400000000000013 0.1780000000000002,-0.2890000000000003 0.12300000000000011,-0.457 c-0.054000000000000103,-0.16700000000000034 -0.2,-0.277 -0.3650000000000003,-0.2970000000000003 c-1.838,-0.20600000000000004 -4.59,-0.51 -4.59,-0.51 s-1.142,-2.524 -1.9,-4.208 c-0.07100000000000002,-0.15100000000000022 -0.22300000000000028,-0.256 -0.3980000000000006,-0.256 s-0.3270000000000005,0.10600000000000002 -0.39400000000000057,0.256 C11.198074268341063,7.5 10.058074268341066,10.025 10.058074268341066,10.025 z" id="svg_8"/>
	</g>
</g></g></svg>